{"glyphs":{"0":{"ha":1089,"x_min":0,"x_max":0,"o":"m 856 856 b 778 933 856 899 821 933 l 467 933 b 389 856 424 933 389 899 l 389 778 l 856 778 z m 311 778 b 233 700 268 778 233 743 l 233 622 l 389 622 l 389 778 z m 856 778 l 856 311 l 933 311 b 1011 389 976 311 1011 346 l 1011 700 b 933 778 1011 743 976 778 z m 156 622 b 78 544 113 622 78 588 l 78 233 b 156 156 78 190 113 156 l 233 156 l 233 622 z m 544 467 l 544 544 b 467 622 544 588 510 622 l 389 622 l 389 544 b 467 467 389 501 424 467 z m 700 311 l 700 389 b 622 467 700 432 665 467 l 544 467 l 544 389 b 622 311 544 346 579 311 z m 778 156 b 856 233 821 156 856 190 l 856 311 l 700 311 l 700 156 z m 233 78 b 311 0 233 35 268 0 l 622 0 b 700 78 665 0 700 35 l 700 156 l 233 156 z "},"1":{"ha":1089,"x_min":0,"x_max":0,"o":"m 544 933 b 467 856 501 933 467 899 b 544 778 467 813 501 778 l 622 778 l 622 856 b 544 933 622 899 588 933 z m 778 700 b 700 778 778 743 743 778 l 622 778 l 622 467 l 700 467 b 778 544 743 467 778 501 z m 544 467 b 467 389 501 467 467 432 l 467 156 l 622 156 l 622 467 z m 311 78 b 389 0 311 35 346 0 b 467 78 432 0 467 35 l 467 156 l 389 156 b 311 78 346 156 311 121 z m 700 0 b 778 78 743 0 778 35 b 700 156 778 121 743 156 l 622 156 l 622 78 b 700 0 622 35 657 0 z "},"2":{"ha":1089,"x_min":0,"x_max":0,"o":"m 389 778 l 856 778 l 856 856 b 778 933 856 899 821 933 l 467 933 b 389 856 424 933 389 899 z m 233 700 b 311 622 233 657 268 622 b 389 700 354 622 389 657 l 389 778 l 311 778 b 233 700 268 778 233 743 z m 856 622 l 933 622 b 1011 700 976 622 1011 657 b 933 778 1011 743 976 778 l 856 778 z m 544 467 l 778 467 b 856 544 821 467 856 501 l 856 622 l 622 622 b 544 544 579 622 544 588 z m 233 311 l 467 311 b 544 389 510 311 544 346 l 544 467 l 311 467 b 233 389 268 467 233 432 z m 78 233 b 156 156 78 190 113 156 l 233 156 l 233 311 l 156 311 b 78 233 113 311 78 276 z m 778 0 b 856 78 821 0 856 35 b 778 156 856 121 821 156 l 233 156 l 233 78 b 311 0 233 35 268 0 z "},"3":{"ha":1089,"x_min":0,"x_max":0,"o":"m 389 778 l 856 778 l 856 856 b 778 933 856 899 821 933 l 467 933 b 389 856 424 933 389 899 z m 233 700 b 311 622 233 657 268 622 b 389 700 354 622 389 657 l 389 778 l 311 778 b 233 700 268 778 233 743 z m 856 467 l 933 467 b 1011 544 976 467 1011 501 l 1011 700 b 933 778 1011 743 976 778 l 856 778 z m 544 544 b 622 467 544 501 579 467 l 700 467 l 700 544 b 622 622 700 588 665 622 b 544 544 579 622 544 588 z m 700 156 l 778 156 b 856 233 821 156 856 190 l 856 467 l 700 467 z m 233 156 l 233 233 b 156 311 233 276 199 311 b 78 233 113 311 78 276 b 156 156 78 190 113 156 z m 233 78 b 311 0 233 35 268 0 l 622 0 b 700 78 665 0 700 35 l 700 156 l 233 156 z "},"4":{"ha":1089,"x_min":0,"x_max":0,"o":"m 544 856 b 467 933 544 899 510 933 b 389 856 424 933 389 899 l 389 778 l 467 778 b 544 856 510 778 544 813 z m 933 933 b 856 856 890 933 856 899 l 856 622 l 933 622 b 1011 700 976 622 1011 657 l 1011 856 b 933 933 1011 899 976 933 z m 389 778 l 311 778 b 233 700 268 778 233 743 l 233 622 l 311 622 b 389 700 354 622 389 657 z m 156 622 b 78 544 113 622 78 588 b 156 467 78 501 113 467 l 233 467 l 233 622 z m 700 467 l 778 467 b 856 544 821 467 856 501 l 856 622 l 778 622 b 700 544 735 622 700 588 z m 233 389 b 311 311 233 346 268 311 l 544 311 l 544 156 l 622 156 b 700 233 665 156 700 190 l 700 467 l 233 467 z m 389 78 b 467 0 389 35 424 0 b 544 78 510 0 544 35 l 544 156 l 467 156 b 389 78 424 156 389 121 z "},"5":{"ha":1089,"x_min":0,"x_max":0,"o":"m 389 778 l 933 778 b 1011 856 976 778 1011 813 b 933 933 1011 899 976 933 l 467 933 b 389 856 424 933 389 899 z m 233 700 b 311 622 233 657 268 622 l 389 622 l 389 778 l 311 778 b 233 700 268 778 233 743 z m 389 544 b 467 467 389 501 424 467 l 700 467 l 700 544 b 622 622 700 588 665 622 l 389 622 z m 700 156 l 778 156 b 856 233 821 156 856 190 l 856 389 b 778 467 856 432 821 467 l 700 467 z m 78 233 b 156 156 78 190 113 156 l 233 156 l 233 233 b 156 311 233 276 199 311 b 78 233 113 311 78 276 z m 700 156 l 233 156 l 233 78 b 311 0 233 35 268 0 l 622 0 b 700 78 665 0 700 35 z "},"6":{"ha":1089,"x_min":0,"x_max":0,"o":"m 389 778 l 856 778 l 856 856 b 778 933 856 899 821 933 l 467 933 b 389 856 424 933 389 899 z m 233 467 l 700 467 l 700 544 b 622 622 700 588 665 622 l 389 622 l 389 778 l 311 778 b 233 700 268 778 233 743 z m 856 700 b 933 622 856 657 890 622 b 1011 700 976 622 1011 657 b 933 778 1011 743 976 778 l 856 778 z m 78 233 b 156 156 78 190 113 156 l 233 156 l 233 467 l 156 467 b 78 389 113 467 78 432 z m 700 156 l 778 156 b 856 233 821 156 856 190 l 856 389 b 778 467 856 432 821 467 l 700 467 z m 700 156 l 233 156 l 233 78 b 311 0 233 35 268 0 l 622 0 b 700 78 665 0 700 35 z "},"7":{"ha":1089,"x_min":0,"x_max":0,"o":"m 233 856 b 311 778 233 813 268 778 l 856 778 l 856 856 b 778 933 856 899 821 933 l 311 933 b 233 856 268 933 233 899 z m 856 778 l 856 622 l 933 622 b 1011 700 976 622 1011 657 b 933 778 1011 743 976 778 z m 544 467 l 778 467 b 856 544 821 467 856 501 l 856 622 l 622 622 b 544 544 579 622 544 588 z m 389 311 l 467 311 b 544 389 510 311 544 346 l 544 467 l 467 467 b 389 389 424 467 389 432 z m 233 78 b 311 0 233 35 268 0 b 389 78 354 0 389 35 l 389 311 l 311 311 b 233 233 268 311 233 276 z "},"8":{"ha":1089,"x_min":0,"x_max":0,"o":"m 467 778 l 778 778 l 778 856 b 700 933 778 899 743 933 l 544 933 b 467 856 501 933 467 899 z m 311 700 b 389 622 311 657 346 622 l 467 622 l 467 778 l 389 778 b 311 700 346 778 311 743 z m 778 622 l 856 622 b 933 700 899 622 933 657 b 856 778 933 743 899 778 l 778 778 z m 467 467 l 778 467 l 778 622 l 467 622 z m 311 311 l 389 311 b 467 389 432 311 467 346 l 467 467 l 389 467 b 311 389 346 467 311 432 z m 778 156 l 856 156 b 933 233 899 156 933 190 l 933 389 b 856 467 933 432 899 467 l 778 467 z m 156 233 b 233 156 156 190 190 156 l 311 156 l 311 311 l 233 311 b 156 233 190 311 156 276 z m 778 156 l 311 156 l 311 78 b 389 0 311 35 346 0 l 700 0 b 778 78 743 0 778 35 z "},"9":{"ha":1089,"x_min":0,"x_max":0,"o":"m 389 778 l 856 778 l 856 856 b 778 933 856 899 821 933 l 467 933 b 389 856 424 933 389 899 z m 233 544 b 311 467 233 501 268 467 l 389 467 l 389 778 l 311 778 b 233 700 268 778 233 743 z m 856 467 l 933 467 b 1011 544 976 467 1011 501 l 1011 700 b 933 778 1011 743 976 778 l 856 778 z m 389 389 b 467 311 389 346 424 311 l 700 311 l 700 156 l 778 156 b 856 233 821 156 856 190 l 856 467 l 389 467 z m 78 233 b 156 156 78 190 113 156 l 233 156 l 233 233 b 156 311 233 276 199 311 b 78 233 113 311 78 276 z m 233 78 b 311 0 233 35 268 0 l 622 0 b 700 78 665 0 700 35 l 700 156 l 233 156 z "}," ":{"ha":1089,"x_min":0,"x_max":0,"o":""},"A":{"ha":1089,"x_min":0,"x_max":0,"o":"m 467 778 l 778 778 l 778 856 b 700 933 778 899 743 933 l 544 933 b 467 856 501 933 467 899 z m 311 467 l 467 467 l 467 778 l 389 778 b 311 700 346 778 311 743 z m 778 78 b 856 0 778 35 813 0 b 933 78 899 0 933 35 l 933 700 b 856 778 933 743 899 778 l 778 778 z m 156 78 b 233 0 156 35 190 0 b 311 78 276 0 311 35 l 311 467 l 233 467 b 156 389 190 467 156 432 z m 467 389 b 544 311 467 346 501 311 b 622 389 588 311 622 346 b 544 467 622 432 588 467 l 467 467 z "},"B":{"ha":1089,"x_min":0,"x_max":0,"o":"m 467 933 b 389 856 424 933 389 899 l 389 778 l 856 778 l 856 856 b 778 933 856 899 821 933 z m 233 311 l 311 311 b 389 389 354 311 389 346 l 389 778 l 311 778 b 233 700 268 778 233 743 z m 856 622 l 933 622 b 1011 700 976 622 1011 657 b 933 778 1011 743 976 778 l 856 778 z m 544 544 b 622 467 544 501 579 467 l 856 467 l 856 622 l 622 622 b 544 544 579 622 544 588 z m 856 311 l 933 311 b 1011 389 976 311 1011 346 b 933 467 1011 432 976 467 l 856 467 z m 78 78 b 156 0 78 35 113 0 l 622 0 b 700 78 665 0 700 35 l 700 156 l 233 156 l 233 311 l 156 311 b 78 233 113 311 78 276 z m 700 156 l 778 156 b 856 233 821 156 856 190 l 856 311 l 778 311 b 700 233 735 311 700 276 z "},"C":{"ha":1089,"x_min":0,"x_max":0,"o":"m 389 778 l 856 778 l 856 856 b 778 933 856 899 821 933 l 467 933 b 389 856 424 933 389 899 z m 233 467 l 311 467 b 389 544 354 467 389 501 l 389 778 l 311 778 b 233 700 268 778 233 743 z m 856 778 l 856 700 b 933 622 856 657 890 622 b 1011 700 976 622 1011 657 b 933 778 1011 743 976 778 z m 78 233 b 156 156 78 190 113 156 l 233 156 l 233 467 l 156 467 b 78 389 113 467 78 432 z m 700 156 l 778 156 b 856 233 821 156 856 190 b 778 311 856 276 821 311 b 700 233 735 311 700 276 z m 233 78 b 311 0 233 35 268 0 l 622 0 b 700 78 665 0 700 35 l 700 156 l 233 156 z "},"D":{"ha":1089,"x_min":0,"x_max":0,"o":"m 389 778 l 700 778 l 700 856 b 622 933 700 899 665 933 l 467 933 b 389 856 424 933 389 899 z m 233 311 l 311 311 b 389 389 354 311 389 346 l 389 778 l 311 778 b 233 700 268 778 233 743 z m 856 622 l 856 700 b 778 778 856 743 821 778 l 700 778 l 700 700 b 778 622 700 657 735 622 z m 856 311 l 933 311 b 1011 389 976 311 1011 346 l 1011 544 b 933 622 1011 588 976 622 l 856 622 z m 78 78 b 156 0 78 35 113 0 l 622 0 b 700 78 665 0 700 35 l 700 156 l 233 156 l 233 311 l 156 311 b 78 233 113 311 78 276 z m 700 156 l 778 156 b 856 233 821 156 856 190 l 856 311 l 778 311 b 700 233 735 311 700 276 z "},"E":{"ha":1089,"x_min":0,"x_max":0,"o":"m 428 778 l 972 778 b 1050 856 1015 778 1050 813 b 972 933 1050 899 1015 933 l 506 933 b 428 856 463 933 428 899 z m 272 467 l 428 467 l 428 778 l 350 778 b 272 700 307 778 272 743 z m 117 233 b 194 156 117 190 151 156 l 272 156 l 272 467 l 194 467 b 117 389 151 467 117 432 z m 428 389 b 506 311 428 346 463 311 l 758 311 b 836 389 801 311 836 346 b 758 467 836 432 801 467 l 428 467 z m 272 78 b 350 0 272 35 307 0 l 817 0 b 894 78 860 0 894 35 b 817 156 894 121 860 156 l 272 156 z "},"F":{"ha":1089,"x_min":0,"x_max":0,"o":"m 428 778 l 972 778 b 1050 856 1015 778 1050 813 b 972 933 1050 899 1015 933 l 506 933 b 428 856 463 933 428 899 z m 272 467 l 428 467 l 428 778 l 350 778 b 272 700 307 778 272 743 z m 117 78 b 194 0 117 35 151 0 b 272 78 238 0 272 35 l 272 467 l 194 467 b 117 389 151 467 117 432 z m 428 389 b 506 311 428 346 463 311 l 758 311 b 836 389 801 311 836 346 b 758 467 836 432 801 467 l 428 467 z "},"G":{"ha":1089,"x_min":0,"x_max":0,"o":"m 389 778 l 856 778 l 856 856 b 778 933 856 899 821 933 l 467 933 b 389 856 424 933 389 899 z m 233 467 l 311 467 b 389 544 354 467 389 501 l 389 778 l 311 778 b 233 700 268 778 233 743 z m 856 700 b 933 622 856 657 890 622 b 1011 700 976 622 1011 657 b 933 778 1011 743 976 778 l 856 778 z m 78 233 b 156 156 78 190 113 156 l 233 156 l 233 467 l 156 467 b 78 389 113 467 78 432 z m 467 389 b 544 311 467 346 501 311 l 700 311 l 700 156 l 778 156 b 856 233 821 156 856 190 l 856 389 b 778 467 856 432 821 467 l 544 467 b 467 389 501 467 467 432 z m 622 0 b 700 78 665 0 700 35 l 700 156 l 233 156 l 233 78 b 311 0 233 35 268 0 z "},"H":{"ha":1089,"x_min":0,"x_max":0,"o":"m 233 467 l 389 467 l 389 856 b 311 933 389 899 354 933 b 233 856 268 933 233 899 z m 856 467 l 933 467 b 1011 544 976 467 1011 501 l 1011 856 b 933 933 1011 899 976 933 b 856 856 890 933 856 899 z m 78 78 b 156 0 78 35 113 0 b 233 78 199 0 233 35 l 233 467 l 156 467 b 78 389 113 467 78 432 z m 389 389 b 467 311 389 346 424 311 l 700 311 l 700 78 b 778 0 700 35 735 0 b 856 78 821 0 856 35 l 856 467 l 389 467 z "},"I":{"ha":1089,"x_min":0,"x_max":0,"o":"m 233 856 b 311 778 233 813 268 778 l 544 778 l 544 856 b 467 933 544 899 510 933 l 311 933 b 233 856 268 933 233 899 z m 700 778 l 933 778 b 1011 856 976 778 1011 813 b 933 933 1011 899 976 933 l 778 933 b 700 856 735 933 700 899 z m 544 467 l 622 467 b 700 544 665 467 700 501 l 700 778 l 544 778 z m 544 467 l 467 467 b 389 389 424 467 389 432 l 389 156 l 544 156 z m 78 78 b 156 0 78 35 113 0 l 311 0 b 389 78 354 0 389 35 l 389 156 l 156 156 b 78 78 113 156 78 121 z m 544 78 b 622 0 544 35 579 0 l 778 0 b 856 78 821 0 856 35 b 778 156 856 121 821 156 l 544 156 z "},"J":{"ha":1089,"x_min":0,"x_max":0,"o":"m 428 856 b 506 778 428 813 463 778 l 739 778 l 739 856 b 661 933 739 899 704 933 l 506 933 b 428 856 463 933 428 899 z m 894 778 l 972 778 b 1050 856 1015 778 1050 813 b 972 933 1050 899 1015 933 b 894 856 929 933 894 899 z m 739 467 l 817 467 b 894 544 860 467 894 501 l 894 778 l 739 778 z m 739 467 l 661 467 b 583 389 618 467 583 432 l 583 156 l 661 156 b 739 233 704 156 739 190 z m 117 233 b 194 156 117 190 151 156 l 272 156 l 272 233 b 194 311 272 276 238 311 b 117 233 151 311 117 276 z m 272 78 b 350 0 272 35 307 0 l 506 0 b 583 78 549 0 583 35 l 583 156 l 272 156 z "},"K":{"ha":1089,"x_min":0,"x_max":0,"o":"m 389 778 l 467 778 b 544 856 510 778 544 813 b 467 933 544 899 510 933 b 389 856 424 933 389 899 z m 856 778 l 933 778 b 1011 856 976 778 1011 813 b 933 933 1011 899 976 933 b 856 856 890 933 856 899 z m 233 311 l 544 311 l 544 467 l 389 467 l 389 778 l 311 778 b 233 700 268 778 233 743 z m 700 622 l 778 622 b 856 700 821 622 856 657 l 856 778 l 778 778 b 700 700 735 778 700 743 z m 544 467 l 622 467 b 700 544 665 467 700 501 l 700 622 l 622 622 b 544 544 579 622 544 588 z m 78 78 b 156 0 78 35 113 0 b 233 78 199 0 233 35 l 233 311 l 156 311 b 78 233 113 311 78 276 z m 544 233 b 622 156 544 190 579 156 l 700 156 l 700 233 b 622 311 700 276 665 311 l 544 311 z m 700 78 b 778 0 700 35 735 0 b 856 78 821 0 856 35 b 778 156 856 121 821 156 l 700 156 z "},"L":{"ha":1089,"x_min":0,"x_max":0,"o":"m 389 778 l 467 778 b 544 856 510 778 544 813 b 467 933 544 899 510 933 b 389 856 424 933 389 899 z m 389 778 l 311 778 b 233 700 268 778 233 743 l 233 311 l 311 311 b 389 389 354 311 389 346 z m 78 78 b 156 0 78 35 113 0 l 778 0 b 856 78 821 0 856 35 l 856 156 l 233 156 l 233 311 l 156 311 b 78 233 113 311 78 276 z m 856 156 l 933 156 b 1011 233 976 156 1011 190 b 933 311 1011 276 976 311 b 856 233 890 311 856 276 z "},"M":{"ha":1089,"x_min":0,"x_max":0,"o":"m 389 778 l 544 778 l 544 856 b 467 933 544 899 510 933 b 389 856 424 933 389 899 z m 700 778 l 856 778 l 856 856 b 778 933 856 899 821 933 b 700 856 735 933 700 899 z m 233 467 l 311 467 b 389 544 354 467 389 501 l 389 778 l 311 778 b 233 700 268 778 233 743 z m 544 544 b 622 467 544 501 579 467 b 700 544 665 467 700 501 l 700 778 l 544 778 z m 856 311 l 933 311 b 1011 389 976 311 1011 346 l 1011 700 b 933 778 1011 743 976 778 l 856 778 z m 78 78 b 156 0 78 35 113 0 b 233 78 199 0 233 35 l 233 467 l 156 467 b 78 389 113 467 78 432 z m 700 78 b 778 0 700 35 735 0 b 856 78 821 0 856 35 l 856 311 l 778 311 b 700 233 735 311 700 276 z "},"N":{"ha":1089,"x_min":0,"x_max":0,"o":"m 467 933 b 389 856 424 933 389 899 l 389 778 l 544 778 l 544 856 b 467 933 544 899 510 933 z m 856 311 l 933 311 b 1011 389 976 311 1011 346 l 1011 856 b 933 933 1011 899 976 933 b 856 856 890 933 856 899 z m 233 311 l 311 311 b 389 389 354 311 389 346 l 389 778 l 311 778 b 233 700 268 778 233 743 z m 544 389 b 622 311 544 346 579 311 l 700 311 l 700 700 b 622 778 700 743 665 778 l 544 778 z m 78 78 b 156 0 78 35 113 0 b 233 78 199 0 233 35 l 233 311 l 156 311 b 78 233 113 311 78 276 z m 700 78 b 778 0 700 35 735 0 b 856 78 821 0 856 35 l 856 311 l 700 311 z "},"O":{"ha":1089,"x_min":0,"x_max":0,"o":"m 856 856 b 778 933 856 899 821 933 l 467 933 b 389 856 424 933 389 899 l 389 778 l 856 778 z m 389 778 l 311 778 b 233 700 268 778 233 743 l 233 467 l 311 467 b 389 544 354 467 389 501 z m 856 778 l 856 311 l 933 311 b 1011 389 976 311 1011 346 l 1011 700 b 933 778 1011 743 976 778 z m 156 467 b 78 389 113 467 78 432 l 78 233 b 156 156 78 190 113 156 l 233 156 l 233 467 z m 700 156 l 778 156 b 856 233 821 156 856 190 l 856 311 l 778 311 b 700 233 735 311 700 276 z m 233 78 b 311 0 233 35 268 0 l 622 0 b 700 78 665 0 700 35 l 700 156 l 233 156 z "},"P":{"ha":1089,"x_min":0,"x_max":0,"o":"m 389 778 l 856 778 l 856 856 b 778 933 856 899 821 933 l 467 933 b 389 856 424 933 389 899 z m 233 467 l 389 467 l 389 778 l 311 778 b 233 700 268 778 233 743 z m 856 467 l 933 467 b 1011 544 976 467 1011 501 l 1011 700 b 933 778 1011 743 976 778 l 856 778 z m 78 78 b 156 0 78 35 113 0 b 233 78 199 0 233 35 l 233 467 l 156 467 b 78 389 113 467 78 432 z m 389 389 b 467 311 389 346 424 311 l 778 311 b 856 389 821 311 856 346 l 856 467 l 389 467 z "},"Q":{"ha":1089,"x_min":0,"x_max":0,"o":"m 856 856 b 778 933 856 899 821 933 l 467 933 b 389 856 424 933 389 899 l 389 778 l 856 778 z m 389 778 l 311 778 b 233 700 268 778 233 743 l 233 467 l 311 467 b 389 544 354 467 389 501 z m 856 778 l 856 311 l 933 311 b 1011 389 976 311 1011 346 l 1011 700 b 933 778 1011 743 976 778 z m 156 467 b 78 389 113 467 78 432 l 78 233 b 156 156 78 190 113 156 l 233 156 l 233 467 z m 622 467 b 544 389 579 467 544 432 b 622 311 544 346 579 311 l 700 311 l 700 389 b 622 467 700 432 665 467 z m 778 156 b 856 233 821 156 856 190 l 856 311 l 700 311 l 700 156 z m 233 78 b 311 0 233 35 268 0 l 622 0 b 700 78 665 0 700 35 l 700 156 l 233 156 z "},"R":{"ha":1089,"x_min":0,"x_max":0,"o":"m 389 778 l 856 778 l 856 856 b 778 933 856 899 821 933 l 467 933 b 389 856 424 933 389 899 z m 233 467 l 389 467 l 389 778 l 311 778 b 233 700 268 778 233 743 z m 856 467 l 933 467 b 1011 544 976 467 1011 501 l 1011 700 b 933 778 1011 743 976 778 l 856 778 z m 78 78 b 156 0 78 35 113 0 b 233 78 199 0 233 35 l 233 467 l 156 467 b 78 389 113 467 78 432 z m 389 233 b 467 156 389 190 424 156 l 544 156 l 544 311 l 778 311 b 856 389 821 311 856 346 l 856 467 l 389 467 z m 544 78 b 622 0 544 35 579 0 l 778 0 b 856 78 821 0 856 35 b 778 156 856 121 821 156 l 544 156 z "},"S":{"ha":1089,"x_min":0,"x_max":0,"o":"m 389 778 l 856 778 l 856 856 b 778 933 856 899 821 933 l 467 933 b 389 856 424 933 389 899 z m 233 700 b 311 622 233 657 268 622 l 389 622 l 389 778 l 311 778 b 233 700 268 778 233 743 z m 856 778 l 856 700 b 933 622 856 657 890 622 b 1011 700 976 622 1011 657 b 933 778 1011 743 976 778 z m 389 544 b 467 467 389 501 424 467 l 700 467 l 700 544 b 622 622 700 588 665 622 l 389 622 z m 700 156 l 778 156 b 856 233 821 156 856 190 l 856 389 b 778 467 856 432 821 467 l 700 467 z m 78 233 b 156 156 78 190 113 156 l 233 156 l 233 233 b 156 311 233 276 199 311 b 78 233 113 311 78 276 z m 233 78 b 311 0 233 35 268 0 l 622 0 b 700 78 665 0 700 35 l 700 156 l 233 156 z "},"T":{"ha":1089,"x_min":0,"x_max":0,"o":"m 78 856 b 156 778 78 813 113 778 l 544 778 l 544 856 b 467 933 544 899 510 933 l 156 933 b 78 856 113 933 78 899 z m 700 778 l 933 778 b 1011 856 976 778 1011 813 b 933 933 1011 899 976 933 l 778 933 b 700 856 735 933 700 899 z m 544 467 l 622 467 b 700 544 665 467 700 501 l 700 778 l 544 778 z m 389 78 b 467 0 389 35 424 0 b 544 78 510 0 544 35 l 544 467 l 467 467 b 389 389 424 467 389 432 z "},"U":{"ha":1089,"x_min":0,"x_max":0,"o":"m 389 778 l 467 778 b 544 856 510 778 544 813 b 467 933 544 899 510 933 b 389 856 424 933 389 899 z m 856 311 l 933 311 b 1011 389 976 311 1011 346 l 1011 856 b 933 933 1011 899 976 933 b 856 856 890 933 856 899 z m 389 778 l 311 778 b 233 700 268 778 233 743 l 233 311 l 311 311 b 389 389 354 311 389 346 z m 78 233 b 156 156 78 190 113 156 l 233 156 l 233 311 l 156 311 b 78 233 113 311 78 276 z m 700 156 l 778 156 b 856 233 821 156 856 190 l 856 311 l 778 311 b 700 233 735 311 700 276 z m 233 78 b 311 0 233 35 268 0 l 622 0 b 700 78 665 0 700 35 l 700 156 l 233 156 z "},"V":{"ha":1089,"x_min":0,"x_max":0,"o":"m 233 233 b 311 156 233 190 268 156 l 389 156 l 389 856 b 311 933 389 899 354 933 b 233 856 268 933 233 899 z m 856 622 l 933 622 b 1011 700 976 622 1011 657 l 1011 856 b 933 933 1011 899 976 933 b 856 856 890 933 856 899 z m 700 311 l 778 311 b 856 389 821 311 856 346 l 856 622 l 778 622 b 700 544 735 622 700 588 z m 544 156 l 622 156 b 700 233 665 156 700 190 l 700 311 l 622 311 b 544 233 579 311 544 276 z m 389 78 b 467 0 389 35 424 0 b 544 78 510 0 544 35 l 544 156 l 389 156 z "},"W":{"ha":1089,"x_min":0,"x_max":0,"o":"m 389 856 b 311 933 389 899 354 933 b 233 856 268 933 233 899 l 233 622 l 311 622 b 389 700 354 622 389 657 z m 856 467 l 933 467 b 1011 544 976 467 1011 501 l 1011 856 b 933 933 1011 899 976 933 b 856 856 890 933 856 899 z m 78 233 b 156 156 78 190 113 156 l 233 156 l 233 622 l 156 622 b 78 544 113 622 78 588 z m 389 156 l 544 156 l 544 389 b 467 467 544 432 510 467 b 389 389 424 467 389 432 z m 700 156 l 778 156 b 856 233 821 156 856 190 l 856 467 l 778 467 b 700 389 735 467 700 432 z m 233 78 b 311 0 233 35 268 0 b 389 78 354 0 389 35 l 389 156 l 233 156 z m 544 78 b 622 0 544 35 579 0 b 700 78 665 0 700 35 l 700 156 l 544 156 z "},"X":{"ha":1089,"x_min":0,"x_max":0,"o":"m 311 700 b 389 622 311 657 346 622 l 467 622 l 467 856 b 389 933 467 899 432 933 b 311 856 346 933 311 899 z m 856 933 b 778 856 813 933 778 899 l 778 778 l 856 778 b 933 856 899 778 933 813 b 856 933 933 899 899 933 z m 622 622 l 700 622 b 778 700 743 622 778 657 l 778 778 l 700 778 b 622 700 657 778 622 743 z m 467 311 l 622 311 l 622 622 l 467 622 z m 311 156 l 389 156 b 467 233 432 156 467 190 l 467 311 l 389 311 b 311 233 346 311 311 276 z m 622 78 b 700 0 622 35 657 0 b 778 78 743 0 778 35 l 778 233 b 700 311 778 276 743 311 l 622 311 z m 156 78 b 233 0 156 35 190 0 b 311 78 276 0 311 35 l 311 156 l 233 156 b 156 78 190 156 156 121 z "},"Y":{"ha":1089,"x_min":0,"x_max":0,"o":"m 233 544 b 311 467 233 501 268 467 l 389 467 l 389 856 b 311 933 389 899 354 933 b 233 856 268 933 233 899 z m 856 622 l 933 622 b 1011 700 976 622 1011 657 l 1011 856 b 933 933 1011 899 976 933 b 856 856 890 933 856 899 z m 700 311 l 778 311 b 856 389 821 311 856 346 l 856 622 l 778 622 b 700 544 735 622 700 588 z m 389 389 b 467 311 389 346 424 311 l 544 311 l 544 389 b 467 467 544 432 510 467 l 389 467 z m 544 156 l 622 156 b 700 233 665 156 700 190 l 700 311 l 544 311 z m 78 78 b 156 0 78 35 113 0 l 467 0 b 544 78 510 0 544 35 l 544 156 l 156 156 b 78 78 113 156 78 121 z "},"Z":{"ha":1089,"x_min":0,"x_max":0,"o":"m 311 933 b 233 856 268 933 233 899 b 311 778 233 813 268 778 l 856 778 l 856 875 b 797 933 856 907 829 933 z m 856 622 l 933 622 b 1011 700 976 622 1011 657 b 933 778 1011 743 976 778 l 856 778 z m 544 467 l 778 467 b 856 544 821 467 856 501 l 856 622 l 622 622 b 544 544 579 622 544 588 z m 233 311 l 467 311 b 544 389 510 311 544 346 l 544 467 l 311 467 b 233 389 268 467 233 432 z m 78 78 b 156 0 78 35 113 0 l 778 0 b 856 78 821 0 856 35 b 778 156 856 121 821 156 l 233 156 l 233 311 l 156 311 b 78 233 113 311 78 276 z "},"a":{"ha":1089,"x_min":0,"x_max":0,"o":"m 467 778 l 778 778 l 778 856 b 700 933 778 899 743 933 l 544 933 b 467 856 501 933 467 899 z m 311 467 l 467 467 l 467 778 l 389 778 b 311 700 346 778 311 743 z m 778 78 b 856 0 778 35 813 0 b 933 78 899 0 933 35 l 933 700 b 856 778 933 743 899 778 l 778 778 z m 156 78 b 233 0 156 35 190 0 b 311 78 276 0 311 35 l 311 467 l 233 467 b 156 389 190 467 156 432 z m 467 389 b 544 311 467 346 501 311 b 622 389 588 311 622 346 b 544 467 622 432 588 467 l 467 467 z "},"b":{"ha":1089,"x_min":0,"x_max":0,"o":"m 467 933 b 389 856 424 933 389 899 l 389 778 l 856 778 l 856 856 b 778 933 856 899 821 933 z m 233 311 l 311 311 b 389 389 354 311 389 346 l 389 778 l 311 778 b 233 700 268 778 233 743 z m 856 622 l 933 622 b 1011 700 976 622 1011 657 b 933 778 1011 743 976 778 l 856 778 z m 544 544 b 622 467 544 501 579 467 l 856 467 l 856 622 l 622 622 b 544 544 579 622 544 588 z m 856 311 l 933 311 b 1011 389 976 311 1011 346 b 933 467 1011 432 976 467 l 856 467 z m 78 78 b 156 0 78 35 113 0 l 622 0 b 700 78 665 0 700 35 l 700 156 l 233 156 l 233 311 l 156 311 b 78 233 113 311 78 276 z m 700 156 l 778 156 b 856 233 821 156 856 190 l 856 311 l 778 311 b 700 233 735 311 700 276 z "},"c":{"ha":1089,"x_min":0,"x_max":0,"o":"m 389 778 l 856 778 l 856 856 b 778 933 856 899 821 933 l 467 933 b 389 856 424 933 389 899 z m 233 467 l 311 467 b 389 544 354 467 389 501 l 389 778 l 311 778 b 233 700 268 778 233 743 z m 856 778 l 856 700 b 933 622 856 657 890 622 b 1011 700 976 622 1011 657 b 933 778 1011 743 976 778 z m 78 233 b 156 156 78 190 113 156 l 233 156 l 233 467 l 156 467 b 78 389 113 467 78 432 z m 700 156 l 778 156 b 856 233 821 156 856 190 b 778 311 856 276 821 311 b 700 233 735 311 700 276 z m 233 78 b 311 0 233 35 268 0 l 622 0 b 700 78 665 0 700 35 l 700 156 l 233 156 z "},"d":{"ha":1089,"x_min":0,"x_max":0,"o":"m 389 778 l 700 778 l 700 856 b 622 933 700 899 665 933 l 467 933 b 389 856 424 933 389 899 z m 233 311 l 311 311 b 389 389 354 311 389 346 l 389 778 l 311 778 b 233 700 268 778 233 743 z m 856 622 l 856 700 b 778 778 856 743 821 778 l 700 778 l 700 700 b 778 622 700 657 735 622 z m 856 311 l 933 311 b 1011 389 976 311 1011 346 l 1011 544 b 933 622 1011 588 976 622 l 856 622 z m 78 78 b 156 0 78 35 113 0 l 622 0 b 700 78 665 0 700 35 l 700 156 l 233 156 l 233 311 l 156 311 b 78 233 113 311 78 276 z m 700 156 l 778 156 b 856 233 821 156 856 190 l 856 311 l 778 311 b 700 233 735 311 700 276 z "},"e":{"ha":1089,"x_min":0,"x_max":0,"o":"m 428 778 l 972 778 b 1050 856 1015 778 1050 813 b 972 933 1050 899 1015 933 l 506 933 b 428 856 463 933 428 899 z m 272 467 l 428 467 l 428 778 l 350 778 b 272 700 307 778 272 743 z m 117 233 b 194 156 117 190 151 156 l 272 156 l 272 467 l 194 467 b 117 389 151 467 117 432 z m 428 389 b 506 311 428 346 463 311 l 758 311 b 836 389 801 311 836 346 b 758 467 836 432 801 467 l 428 467 z m 272 78 b 350 0 272 35 307 0 l 817 0 b 894 78 860 0 894 35 b 817 156 894 121 860 156 l 272 156 z "},"f":{"ha":1089,"x_min":0,"x_max":0,"o":"m 428 778 l 972 778 b 1050 856 1015 778 1050 813 b 972 933 1050 899 1015 933 l 506 933 b 428 856 463 933 428 899 z m 272 467 l 428 467 l 428 778 l 350 778 b 272 700 307 778 272 743 z m 117 78 b 194 0 117 35 151 0 b 272 78 238 0 272 35 l 272 467 l 194 467 b 117 389 151 467 117 432 z m 428 389 b 506 311 428 346 463 311 l 758 311 b 836 389 801 311 836 346 b 758 467 836 432 801 467 l 428 467 z "},"g":{"ha":1089,"x_min":0,"x_max":0,"o":"m 389 778 l 856 778 l 856 856 b 778 933 856 899 821 933 l 467 933 b 389 856 424 933 389 899 z m 233 467 l 311 467 b 389 544 354 467 389 501 l 389 778 l 311 778 b 233 700 268 778 233 743 z m 856 700 b 933 622 856 657 890 622 b 1011 700 976 622 1011 657 b 933 778 1011 743 976 778 l 856 778 z m 78 233 b 156 156 78 190 113 156 l 233 156 l 233 467 l 156 467 b 78 389 113 467 78 432 z m 467 389 b 544 311 467 346 501 311 l 700 311 l 700 156 l 778 156 b 856 233 821 156 856 190 l 856 389 b 778 467 856 432 821 467 l 544 467 b 467 389 501 467 467 432 z m 622 0 b 700 78 665 0 700 35 l 700 156 l 233 156 l 233 78 b 311 0 233 35 268 0 z "},"h":{"ha":1089,"x_min":0,"x_max":0,"o":"m 233 467 l 389 467 l 389 856 b 311 933 389 899 354 933 b 233 856 268 933 233 899 z m 856 467 l 933 467 b 1011 544 976 467 1011 501 l 1011 856 b 933 933 1011 899 976 933 b 856 856 890 933 856 899 z m 78 78 b 156 0 78 35 113 0 b 233 78 199 0 233 35 l 233 467 l 156 467 b 78 389 113 467 78 432 z m 389 389 b 467 311 389 346 424 311 l 700 311 l 700 78 b 778 0 700 35 735 0 b 856 78 821 0 856 35 l 856 467 l 389 467 z "},"i":{"ha":1089,"x_min":0,"x_max":0,"o":"m 233 856 b 311 778 233 813 268 778 l 544 778 l 544 856 b 467 933 544 899 510 933 l 311 933 b 233 856 268 933 233 899 z m 700 778 l 933 778 b 1011 856 976 778 1011 813 b 933 933 1011 899 976 933 l 778 933 b 700 856 735 933 700 899 z m 544 467 l 622 467 b 700 544 665 467 700 501 l 700 778 l 544 778 z m 544 467 l 467 467 b 389 389 424 467 389 432 l 389 156 l 544 156 z m 78 78 b 156 0 78 35 113 0 l 311 0 b 389 78 354 0 389 35 l 389 156 l 156 156 b 78 78 113 156 78 121 z m 544 78 b 622 0 544 35 579 0 l 778 0 b 856 78 821 0 856 35 b 778 156 856 121 821 156 l 544 156 z "},"j":{"ha":1089,"x_min":0,"x_max":0,"o":"m 428 856 b 506 778 428 813 463 778 l 739 778 l 739 856 b 661 933 739 899 704 933 l 506 933 b 428 856 463 933 428 899 z m 894 778 l 972 778 b 1050 856 1015 778 1050 813 b 972 933 1050 899 1015 933 b 894 856 929 933 894 899 z m 739 467 l 817 467 b 894 544 860 467 894 501 l 894 778 l 739 778 z m 739 467 l 661 467 b 583 389 618 467 583 432 l 583 156 l 661 156 b 739 233 704 156 739 190 z m 117 233 b 194 156 117 190 151 156 l 272 156 l 272 233 b 194 311 272 276 238 311 b 117 233 151 311 117 276 z m 272 78 b 350 0 272 35 307 0 l 506 0 b 583 78 549 0 583 35 l 583 156 l 272 156 z "},"k":{"ha":1089,"x_min":0,"x_max":0,"o":"m 389 778 l 467 778 b 544 856 510 778 544 813 b 467 933 544 899 510 933 b 389 856 424 933 389 899 z m 856 778 l 933 778 b 1011 856 976 778 1011 813 b 933 933 1011 899 976 933 b 856 856 890 933 856 899 z m 233 311 l 544 311 l 544 467 l 389 467 l 389 778 l 311 778 b 233 700 268 778 233 743 z m 700 622 l 778 622 b 856 700 821 622 856 657 l 856 778 l 778 778 b 700 700 735 778 700 743 z m 544 467 l 622 467 b 700 544 665 467 700 501 l 700 622 l 622 622 b 544 544 579 622 544 588 z m 78 78 b 156 0 78 35 113 0 b 233 78 199 0 233 35 l 233 311 l 156 311 b 78 233 113 311 78 276 z m 544 233 b 622 156 544 190 579 156 l 700 156 l 700 233 b 622 311 700 276 665 311 l 544 311 z m 700 78 b 778 0 700 35 735 0 b 856 78 821 0 856 35 b 778 156 856 121 821 156 l 700 156 z "},"l":{"ha":1089,"x_min":0,"x_max":0,"o":"m 389 778 l 467 778 b 544 856 510 778 544 813 b 467 933 544 899 510 933 b 389 856 424 933 389 899 z m 389 778 l 311 778 b 233 700 268 778 233 743 l 233 311 l 311 311 b 389 389 354 311 389 346 z m 78 78 b 156 0 78 35 113 0 l 778 0 b 856 78 821 0 856 35 l 856 156 l 233 156 l 233 311 l 156 311 b 78 233 113 311 78 276 z m 856 156 l 933 156 b 1011 233 976 156 1011 190 b 933 311 1011 276 976 311 b 856 233 890 311 856 276 z "},"m":{"ha":1089,"x_min":0,"x_max":0,"o":"m 389 778 l 544 778 l 544 856 b 467 933 544 899 510 933 b 389 856 424 933 389 899 z m 700 778 l 856 778 l 856 856 b 778 933 856 899 821 933 b 700 856 735 933 700 899 z m 233 467 l 311 467 b 389 544 354 467 389 501 l 389 778 l 311 778 b 233 700 268 778 233 743 z m 544 544 b 622 467 544 501 579 467 b 700 544 665 467 700 501 l 700 778 l 544 778 z m 856 311 l 933 311 b 1011 389 976 311 1011 346 l 1011 700 b 933 778 1011 743 976 778 l 856 778 z m 78 78 b 156 0 78 35 113 0 b 233 78 199 0 233 35 l 233 467 l 156 467 b 78 389 113 467 78 432 z m 700 78 b 778 0 700 35 735 0 b 856 78 821 0 856 35 l 856 311 l 778 311 b 700 233 735 311 700 276 z "},"n":{"ha":1089,"x_min":0,"x_max":0,"o":"m 467 933 b 389 856 424 933 389 899 l 389 778 l 544 778 l 544 856 b 467 933 544 899 510 933 z m 856 311 l 933 311 b 1011 389 976 311 1011 346 l 1011 856 b 933 933 1011 899 976 933 b 856 856 890 933 856 899 z m 233 311 l 311 311 b 389 389 354 311 389 346 l 389 778 l 311 778 b 233 700 268 778 233 743 z m 544 389 b 622 311 544 346 579 311 l 700 311 l 700 700 b 622 778 700 743 665 778 l 544 778 z m 78 78 b 156 0 78 35 113 0 b 233 78 199 0 233 35 l 233 311 l 156 311 b 78 233 113 311 78 276 z m 700 78 b 778 0 700 35 735 0 b 856 78 821 0 856 35 l 856 311 l 700 311 z "},"o":{"ha":1089,"x_min":0,"x_max":0,"o":"m 856 856 b 778 933 856 899 821 933 l 467 933 b 389 856 424 933 389 899 l 389 778 l 856 778 z m 389 778 l 311 778 b 233 700 268 778 233 743 l 233 467 l 311 467 b 389 544 354 467 389 501 z m 856 778 l 856 311 l 933 311 b 1011 389 976 311 1011 346 l 1011 700 b 933 778 1011 743 976 778 z m 156 467 b 78 389 113 467 78 432 l 78 233 b 156 156 78 190 113 156 l 233 156 l 233 467 z m 700 156 l 778 156 b 856 233 821 156 856 190 l 856 311 l 778 311 b 700 233 735 311 700 276 z m 233 78 b 311 0 233 35 268 0 l 622 0 b 700 78 665 0 700 35 l 700 156 l 233 156 z "},"p":{"ha":1089,"x_min":0,"x_max":0,"o":"m 389 778 l 856 778 l 856 856 b 778 933 856 899 821 933 l 467 933 b 389 856 424 933 389 899 z m 233 467 l 389 467 l 389 778 l 311 778 b 233 700 268 778 233 743 z m 856 467 l 933 467 b 1011 544 976 467 1011 501 l 1011 700 b 933 778 1011 743 976 778 l 856 778 z m 78 78 b 156 0 78 35 113 0 b 233 78 199 0 233 35 l 233 467 l 156 467 b 78 389 113 467 78 432 z m 389 389 b 467 311 389 346 424 311 l 778 311 b 856 389 821 311 856 346 l 856 467 l 389 467 z "},"q":{"ha":1089,"x_min":0,"x_max":0,"o":"m 856 856 b 778 933 856 899 821 933 l 467 933 b 389 856 424 933 389 899 l 389 778 l 856 778 z m 389 778 l 311 778 b 233 700 268 778 233 743 l 233 467 l 311 467 b 389 544 354 467 389 501 z m 856 778 l 856 311 l 933 311 b 1011 389 976 311 1011 346 l 1011 700 b 933 778 1011 743 976 778 z m 156 467 b 78 389 113 467 78 432 l 78 233 b 156 156 78 190 113 156 l 233 156 l 233 467 z m 622 467 b 544 389 579 467 544 432 b 622 311 544 346 579 311 l 700 311 l 700 389 b 622 467 700 432 665 467 z m 778 156 b 856 233 821 156 856 190 l 856 311 l 700 311 l 700 156 z m 233 78 b 311 0 233 35 268 0 l 622 0 b 700 78 665 0 700 35 l 700 156 l 233 156 z "},"r":{"ha":1089,"x_min":0,"x_max":0,"o":"m 389 778 l 856 778 l 856 856 b 778 933 856 899 821 933 l 467 933 b 389 856 424 933 389 899 z m 233 467 l 389 467 l 389 778 l 311 778 b 233 700 268 778 233 743 z m 856 467 l 933 467 b 1011 544 976 467 1011 501 l 1011 700 b 933 778 1011 743 976 778 l 856 778 z m 78 78 b 156 0 78 35 113 0 b 233 78 199 0 233 35 l 233 467 l 156 467 b 78 389 113 467 78 432 z m 389 233 b 467 156 389 190 424 156 l 544 156 l 544 311 l 778 311 b 856 389 821 311 856 346 l 856 467 l 389 467 z m 544 78 b 622 0 544 35 579 0 l 778 0 b 856 78 821 0 856 35 b 778 156 856 121 821 156 l 544 156 z "},"s":{"ha":1089,"x_min":0,"x_max":0,"o":"m 389 778 l 856 778 l 856 856 b 778 933 856 899 821 933 l 467 933 b 389 856 424 933 389 899 z m 233 700 b 311 622 233 657 268 622 l 389 622 l 389 778 l 311 778 b 233 700 268 778 233 743 z m 856 778 l 856 700 b 933 622 856 657 890 622 b 1011 700 976 622 1011 657 b 933 778 1011 743 976 778 z m 389 544 b 467 467 389 501 424 467 l 700 467 l 700 544 b 622 622 700 588 665 622 l 389 622 z m 700 156 l 778 156 b 856 233 821 156 856 190 l 856 389 b 778 467 856 432 821 467 l 700 467 z m 78 233 b 156 156 78 190 113 156 l 233 156 l 233 233 b 156 311 233 276 199 311 b 78 233 113 311 78 276 z m 233 78 b 311 0 233 35 268 0 l 622 0 b 700 78 665 0 700 35 l 700 156 l 233 156 z "},"t":{"ha":1089,"x_min":0,"x_max":0,"o":"m 78 856 b 156 778 78 813 113 778 l 544 778 l 544 856 b 467 933 544 899 510 933 l 156 933 b 78 856 113 933 78 899 z m 700 778 l 933 778 b 1011 856 976 778 1011 813 b 933 933 1011 899 976 933 l 778 933 b 700 856 735 933 700 899 z m 544 467 l 622 467 b 700 544 665 467 700 501 l 700 778 l 544 778 z m 389 78 b 467 0 389 35 424 0 b 544 78 510 0 544 35 l 544 467 l 467 467 b 389 389 424 467 389 432 z "},"u":{"ha":1089,"x_min":0,"x_max":0,"o":"m 389 778 l 467 778 b 544 856 510 778 544 813 b 467 933 544 899 510 933 b 389 856 424 933 389 899 z m 856 311 l 933 311 b 1011 389 976 311 1011 346 l 1011 856 b 933 933 1011 899 976 933 b 856 856 890 933 856 899 z m 389 778 l 311 778 b 233 700 268 778 233 743 l 233 311 l 311 311 b 389 389 354 311 389 346 z m 78 233 b 156 156 78 190 113 156 l 233 156 l 233 311 l 156 311 b 78 233 113 311 78 276 z m 700 156 l 778 156 b 856 233 821 156 856 190 l 856 311 l 778 311 b 700 233 735 311 700 276 z m 233 78 b 311 0 233 35 268 0 l 622 0 b 700 78 665 0 700 35 l 700 156 l 233 156 z "},"v":{"ha":1089,"x_min":0,"x_max":0,"o":"m 233 233 b 311 156 233 190 268 156 l 389 156 l 389 856 b 311 933 389 899 354 933 b 233 856 268 933 233 899 z m 856 622 l 933 622 b 1011 700 976 622 1011 657 l 1011 856 b 933 933 1011 899 976 933 b 856 856 890 933 856 899 z m 700 311 l 778 311 b 856 389 821 311 856 346 l 856 622 l 778 622 b 700 544 735 622 700 588 z m 544 156 l 622 156 b 700 233 665 156 700 190 l 700 311 l 622 311 b 544 233 579 311 544 276 z m 389 78 b 467 0 389 35 424 0 b 544 78 510 0 544 35 l 544 156 l 389 156 z "},"w":{"ha":1089,"x_min":0,"x_max":0,"o":"m 389 856 b 311 933 389 899 354 933 b 233 856 268 933 233 899 l 233 622 l 311 622 b 389 700 354 622 389 657 z m 856 467 l 933 467 b 1011 544 976 467 1011 501 l 1011 856 b 933 933 1011 899 976 933 b 856 856 890 933 856 899 z m 78 233 b 156 156 78 190 113 156 l 233 156 l 233 622 l 156 622 b 78 544 113 622 78 588 z m 389 156 l 544 156 l 544 389 b 467 467 544 432 510 467 b 389 389 424 467 389 432 z m 700 156 l 778 156 b 856 233 821 156 856 190 l 856 467 l 778 467 b 700 389 735 467 700 432 z m 233 78 b 311 0 233 35 268 0 b 389 78 354 0 389 35 l 389 156 l 233 156 z m 544 78 b 622 0 544 35 579 0 b 700 78 665 0 700 35 l 700 156 l 544 156 z "},"x":{"ha":1089,"x_min":0,"x_max":0,"o":"m 311 700 b 389 622 311 657 346 622 l 467 622 l 467 856 b 389 933 467 899 432 933 b 311 856 346 933 311 899 z m 856 933 b 778 856 813 933 778 899 l 778 778 l 856 778 b 933 856 899 778 933 813 b 856 933 933 899 899 933 z m 622 622 l 700 622 b 778 700 743 622 778 657 l 778 778 l 700 778 b 622 700 657 778 622 743 z m 467 311 l 622 311 l 622 622 l 467 622 z m 311 156 l 389 156 b 467 233 432 156 467 190 l 467 311 l 389 311 b 311 233 346 311 311 276 z m 622 78 b 700 0 622 35 657 0 b 778 78 743 0 778 35 l 778 233 b 700 311 778 276 743 311 l 622 311 z m 156 78 b 233 0 156 35 190 0 b 311 78 276 0 311 35 l 311 156 l 233 156 b 156 78 190 156 156 121 z "},"y":{"ha":1089,"x_min":0,"x_max":0,"o":"m 233 544 b 311 467 233 501 268 467 l 389 467 l 389 856 b 311 933 389 899 354 933 b 233 856 268 933 233 899 z m 856 622 l 933 622 b 1011 700 976 622 1011 657 l 1011 856 b 933 933 1011 899 976 933 b 856 856 890 933 856 899 z m 700 311 l 778 311 b 856 389 821 311 856 346 l 856 622 l 778 622 b 700 544 735 622 700 588 z m 389 389 b 467 311 389 346 424 311 l 544 311 l 544 389 b 467 467 544 432 510 467 l 389 467 z m 544 156 l 622 156 b 700 233 665 156 700 190 l 700 311 l 544 311 z m 78 78 b 156 0 78 35 113 0 l 467 0 b 544 78 510 0 544 35 l 544 156 l 156 156 b 78 78 113 156 78 121 z "},"z":{"ha":1089,"x_min":0,"x_max":0,"o":"m 311 933 b 233 856 268 933 233 899 b 311 778 233 813 268 778 l 856 778 l 856 875 b 797 933 856 907 829 933 z m 856 622 l 933 622 b 1011 700 976 622 1011 657 b 933 778 1011 743 976 778 l 856 778 z m 544 467 l 778 467 b 856 544 821 467 856 501 l 856 622 l 622 622 b 544 544 579 622 544 588 z m 233 311 l 467 311 b 544 389 510 311 544 346 l 544 467 l 311 467 b 233 389 268 467 233 432 z m 78 78 b 156 0 78 35 113 0 l 778 0 b 856 78 821 0 856 35 b 778 156 856 121 821 156 l 233 156 l 233 311 l 156 311 b 78 233 113 311 78 276 z "},".":{"ha":1089,"x_min":0,"x_max":0,"o":"m 544 156 b 467 78 501 156 467 121 b 544 0 467 35 501 0 b 622 78 588 0 622 35 b 544 156 622 121 588 156 z "},",":{"ha":1089,"x_min":0,"x_max":0,"o":"m 544 156 l 622 156 b 700 233 665 156 700 190 b 622 311 700 276 665 311 b 544 233 579 311 544 276 z m 389 78 b 467 0 389 35 424 0 b 544 78 510 0 544 35 l 544 156 l 467 156 b 389 78 424 156 389 121 z "},":":{"ha":1089,"x_min":0,"x_max":0,"o":"m 544 694 b 622 617 544 651 579 617 b 700 694 665 617 700 651 b 622 772 700 738 665 772 b 544 694 579 772 544 738 z m 467 311 b 389 233 424 311 389 276 b 467 156 389 190 424 156 b 544 233 510 156 544 190 b 467 311 544 276 510 311 z "},";":{"ha":1089,"x_min":0,"x_max":0,"o":"m 622 694 b 700 617 622 651 657 617 b 778 694 743 617 778 651 b 700 772 778 738 743 772 b 622 694 657 772 622 738 z m 467 156 l 544 156 b 622 233 588 156 622 190 b 544 311 622 276 588 311 b 467 233 501 311 467 276 z m 311 78 b 389 0 311 35 346 0 b 467 78 432 0 467 35 l 467 156 l 389 156 b 311 78 346 156 311 121 z "},"!":{"ha":1089,"x_min":0,"x_max":0,"o":"m 622 622 l 700 622 b 778 700 743 622 778 657 l 778 856 b 700 933 778 899 743 933 b 622 856 657 933 622 899 z m 467 389 b 544 311 467 346 501 311 b 622 389 588 311 622 346 l 622 622 l 544 622 b 467 544 501 622 467 588 z m 389 156 b 311 78 346 156 311 121 b 389 0 311 35 346 0 b 467 78 432 0 467 35 b 389 156 467 121 432 156 z "},"?":{"ha":1089,"x_min":0,"x_max":0,"o":"m 467 778 l 778 778 l 778 856 b 700 933 778 899 743 933 l 544 933 b 467 856 501 933 467 899 z m 311 700 b 389 622 311 657 346 622 b 467 700 432 622 467 657 l 467 778 l 389 778 b 311 700 346 778 311 743 z m 778 622 l 856 622 b 933 700 899 622 933 657 b 856 778 933 743 899 778 l 778 778 z m 622 467 l 700 467 b 778 544 743 467 778 501 l 778 622 l 700 622 b 622 544 657 622 622 588 z m 311 389 b 389 311 311 346 346 311 l 544 311 b 622 389 588 311 622 346 l 622 467 l 389 467 b 311 389 346 467 311 432 z m 233 156 b 156 78 190 156 156 121 b 233 0 156 35 190 0 b 311 78 276 0 311 35 b 233 156 311 121 276 156 z "},"•":{"ha":1089,"x_min":0,"x_max":0,"o":"m 467 311 b 389 389 424 311 389 346 l 389 544 b 467 622 389 588 424 622 l 622 622 b 700 544 665 622 700 588 l 700 389 b 622 311 700 346 665 311 z "},"*":{"ha":1089,"x_min":0,"x_max":0,"o":"m 467 778 l 622 778 l 622 856 b 544 933 622 899 588 933 b 467 856 501 933 467 899 z m 311 700 b 389 622 311 657 346 622 l 467 622 l 467 778 l 389 778 b 311 700 346 778 311 743 z m 622 778 l 622 622 l 700 622 b 778 700 743 622 778 657 b 700 778 778 743 743 778 z m 467 544 b 544 467 467 501 501 467 b 622 544 588 467 622 501 l 622 622 l 467 622 z "},"/":{"ha":1089,"x_min":0,"x_max":0,"o":"m 622 622 l 700 622 b 778 700 743 622 778 657 l 778 856 b 700 933 778 899 743 933 b 622 856 657 933 622 899 z m 467 311 l 544 311 b 622 389 588 311 622 346 l 622 622 l 544 622 b 467 544 501 622 467 588 z m 311 78 b 389 0 311 35 346 0 b 467 78 432 0 467 35 l 467 311 l 389 311 b 311 233 346 311 311 276 z "},"\\":{"ha":1089,"x_min":0,"x_max":0,"o":"m 311 856 b 389 933 311 899 346 933 b 467 856 432 933 467 899 l 467 622 l 389 622 b 311 700 346 622 311 657 z m 467 622 l 544 622 b 622 544 588 622 622 588 l 622 311 l 544 311 b 467 389 501 311 467 346 z m 778 78 b 700 0 778 35 743 0 b 622 78 657 0 622 35 l 622 311 l 700 311 b 778 233 743 311 778 276 z "},"-":{"ha":1089,"x_min":0,"x_max":0,"o":"m 389 467 b 311 389 346 467 311 432 b 389 311 311 346 346 311 l 700 311 b 778 389 743 311 778 346 b 700 467 778 432 743 467 z "},"–":{"ha":1089,"x_min":0,"x_max":0,"o":"m 311 467 b 233 389 268 467 233 432 b 311 311 233 346 268 311 l 778 311 b 856 389 821 311 856 346 b 778 467 856 432 821 467 z "},"—":{"ha":1089,"x_min":0,"x_max":0,"o":"m 233 467 b 156 389 190 467 156 432 b 233 311 156 346 190 311 l 856 311 b 933 389 899 311 933 346 b 856 467 933 432 899 467 z "},"_":{"ha":1089,"x_min":0,"x_max":0,"o":"m 233 156 b 156 78 190 156 156 121 b 233 0 156 35 190 0 l 856 0 b 933 78 899 0 933 35 b 856 156 933 121 899 156 z "},"(":{"ha":1089,"x_min":0,"x_max":0,"o":"m 622 778 l 700 778 b 778 856 743 778 778 813 b 700 933 778 899 743 933 b 622 856 657 933 622 899 z m 467 622 l 544 622 b 622 700 588 622 622 657 l 622 778 l 544 778 b 467 700 501 778 467 743 z m 311 233 b 389 156 311 190 346 156 l 467 156 l 467 622 l 389 622 b 311 544 346 622 311 588 z m 467 78 b 544 0 467 35 501 0 b 622 78 588 0 622 35 b 544 156 622 121 588 156 l 467 156 z "},")":{"ha":1089,"x_min":0,"x_max":0,"o":"m 467 856 b 544 778 467 813 501 778 l 622 778 l 622 856 b 544 933 622 899 588 933 b 467 856 501 933 467 899 z m 622 311 l 700 311 b 778 389 743 311 778 346 l 778 700 b 700 778 778 743 743 778 l 622 778 z m 467 156 l 544 156 b 622 233 588 156 622 190 l 622 311 l 544 311 b 467 233 501 311 467 276 z m 311 78 b 389 0 311 35 346 0 b 467 78 432 0 467 35 l 467 156 l 389 156 b 311 78 346 156 311 121 z "},"[":{"ha":1089,"x_min":0,"x_max":0,"o":"m 622 933 b 544 856 579 933 544 899 l 544 778 l 778 778 b 856 856 821 778 856 813 b 778 933 856 899 821 933 z m 389 467 l 467 467 b 544 544 510 467 544 501 l 544 778 l 467 778 b 389 700 424 778 389 743 z m 233 233 b 311 156 233 190 268 156 l 389 156 l 389 467 l 311 467 b 233 389 268 467 233 432 z m 389 78 b 467 0 389 35 424 0 l 622 0 b 700 78 665 0 700 35 b 622 156 700 121 665 156 l 389 156 z "},"]":{"ha":1089,"x_min":0,"x_max":0,"o":"m 467 933 b 389 856 424 933 389 899 b 467 778 389 813 424 778 l 700 778 l 700 856 b 622 933 700 899 665 933 z m 700 467 l 778 467 b 856 544 821 467 856 501 l 856 700 b 778 778 856 743 821 778 l 700 778 z m 544 156 l 622 156 b 700 233 665 156 700 190 l 700 467 l 622 467 b 544 389 579 467 544 432 z m 233 78 b 311 0 233 35 268 0 l 467 0 b 544 78 510 0 544 35 l 544 156 l 311 156 b 233 78 268 156 233 121 z "},"‚":{"ha":1089,"x_min":0,"x_max":0,"o":"m 544 156 l 622 156 b 700 233 665 156 700 190 b 622 311 700 276 665 311 b 544 233 579 311 544 276 z m 389 78 b 467 0 389 35 424 0 b 544 78 510 0 544 35 l 544 156 l 467 156 b 389 78 424 156 389 121 z "},"“":{"ha":1089,"x_min":0,"x_max":0,"o":"m 389 778 l 544 778 l 544 856 b 467 933 544 899 510 933 b 389 856 424 933 389 899 z m 700 778 l 778 778 b 856 856 821 778 856 813 b 778 933 856 899 821 933 b 700 856 735 933 700 899 z m 233 700 b 311 622 233 657 268 622 b 389 700 354 622 389 657 l 389 778 l 311 778 b 233 700 268 778 233 743 z m 544 700 b 622 622 544 657 579 622 b 700 700 665 622 700 657 l 700 778 l 544 778 z "},"”":{"ha":1089,"x_min":0,"x_max":0,"o":"m 389 778 l 544 778 l 544 856 b 467 933 544 899 510 933 b 389 856 424 933 389 899 z m 700 778 l 778 778 b 856 856 821 778 856 813 b 778 933 856 899 821 933 b 700 856 735 933 700 899 z m 233 700 b 311 622 233 657 268 622 b 389 700 354 622 389 657 l 389 778 l 311 778 b 233 700 268 778 233 743 z m 544 700 b 622 622 544 657 579 622 b 700 700 665 622 700 657 l 700 778 l 544 778 z "},"‘":{"ha":1089,"x_min":0,"x_max":0,"o":"m 544 778 l 622 778 b 700 856 665 778 700 813 b 622 933 700 899 665 933 b 544 856 579 933 544 899 z m 389 700 b 467 622 389 657 424 622 b 544 700 510 622 544 657 l 544 778 l 467 778 b 389 700 424 778 389 743 z "},"’":{"ha":1089,"x_min":0,"x_max":0,"o":"m 544 778 l 622 778 b 700 856 665 778 700 813 b 622 933 700 899 665 933 b 544 856 579 933 544 899 z m 389 700 b 467 622 389 657 424 622 b 544 700 510 622 544 657 l 544 778 l 467 778 b 389 700 424 778 389 743 z "},"\"":{"ha":1089,"x_min":0,"x_max":0,"o":"m 389 778 l 544 778 l 544 856 b 467 933 544 899 510 933 b 389 856 424 933 389 899 z m 700 778 l 778 778 b 856 856 821 778 856 813 b 778 933 856 899 821 933 b 700 856 735 933 700 899 z m 233 700 b 311 622 233 657 268 622 b 389 700 354 622 389 657 l 389 778 l 311 778 b 233 700 268 778 233 743 z m 544 700 b 622 622 544 657 579 622 b 700 700 665 622 700 657 l 700 778 l 544 778 z "},"'":{"ha":1089,"x_min":0,"x_max":0,"o":"m 544 778 l 622 778 b 700 856 665 778 700 813 b 622 933 700 899 665 933 b 544 856 579 933 544 899 z m 389 700 b 467 622 389 657 424 622 b 544 700 510 622 544 657 l 544 778 l 467 778 b 389 700 424 778 389 743 z "},"@":{"ha":1089,"x_min":0,"x_max":0,"o":"m 389 778 l 856 778 l 856 856 b 778 933 856 899 821 933 l 467 933 b 389 856 424 933 389 899 z m 233 622 l 311 622 b 389 700 354 622 389 657 l 389 778 l 311 778 b 233 700 268 778 233 743 z m 856 467 l 933 467 b 1011 544 976 467 1011 501 l 1011 700 b 933 778 1011 743 976 778 l 856 778 z m 78 233 b 156 156 78 190 113 156 l 233 156 l 233 622 l 156 622 b 78 544 113 622 78 588 z m 700 467 l 700 544 b 622 622 700 588 665 622 b 544 544 579 622 544 588 l 544 467 z m 389 389 b 467 311 389 346 424 311 l 544 311 l 544 467 l 467 467 b 389 389 424 467 389 432 z m 700 311 l 778 311 b 856 389 821 311 856 346 l 856 467 l 700 467 z m 544 233 b 622 156 544 190 579 156 b 700 233 665 156 700 190 l 700 311 l 544 311 z m 233 78 b 311 0 233 35 268 0 b 389 78 354 0 389 35 b 311 156 389 121 354 156 l 233 156 z "},"&":{"ha":1089,"x_min":0,"x_max":0,"o":"m 389 778 l 700 778 l 700 856 b 622 933 700 899 665 933 l 467 933 b 389 856 424 933 389 899 z m 233 467 l 389 467 l 389 778 l 311 778 b 233 700 268 778 233 743 z m 700 622 l 778 622 b 856 700 821 622 856 657 b 778 778 856 743 821 778 l 700 778 z m 544 467 l 700 467 l 700 622 l 622 622 b 544 544 579 622 544 588 z m 78 233 b 156 156 78 190 113 156 l 233 156 l 233 467 l 156 467 b 78 389 113 467 78 432 z m 389 389 b 467 311 389 346 424 311 l 544 311 l 544 467 l 389 467 z m 700 311 l 933 311 b 1011 389 976 311 1011 346 b 933 467 1011 432 976 467 l 700 467 z m 544 156 l 700 156 l 700 311 l 544 311 z m 233 78 b 311 0 233 35 268 0 l 467 0 b 544 78 510 0 544 35 l 544 156 l 233 156 z m 778 0 b 856 78 821 0 856 35 b 778 156 856 121 821 156 l 700 156 l 700 78 b 778 0 700 35 735 0 z "},"+":{"ha":1089,"x_min":0,"x_max":0,"o":"m 544 778 b 467 700 501 778 467 743 l 467 467 l 622 467 l 622 700 b 544 778 622 743 588 778 z m 156 389 b 233 311 156 346 190 311 l 311 311 l 311 78 b 389 0 311 35 346 0 b 467 78 432 0 467 35 l 467 467 l 233 467 b 156 389 190 467 156 432 z m 622 389 b 700 311 622 346 657 311 l 856 311 b 933 389 899 311 933 346 b 856 467 933 432 899 467 l 622 467 z "},"×":{"ha":1089,"x_min":0,"x_max":0,"o":"m 311 544 b 389 467 311 501 346 467 l 467 467 l 467 700 b 389 778 467 743 432 778 b 311 700 346 778 311 743 z m 778 622 l 856 622 b 933 700 899 622 933 657 b 856 778 933 743 899 778 b 778 700 813 778 778 743 z m 622 467 l 700 467 b 778 544 743 467 778 501 l 778 622 l 700 622 b 622 544 657 622 622 588 z m 467 311 l 622 311 l 622 467 l 467 467 z m 311 156 l 389 156 b 467 233 432 156 467 190 l 467 311 l 389 311 b 311 233 346 311 311 276 z m 622 78 b 700 0 622 35 657 0 b 778 78 743 0 778 35 l 778 233 b 700 311 778 276 743 311 l 622 311 z m 156 78 b 233 0 156 35 190 0 b 311 78 276 0 311 35 l 311 156 l 233 156 b 156 78 190 156 156 121 z "},"÷":{"ha":1089,"x_min":0,"x_max":0,"o":"m 544 700 b 622 622 544 657 579 622 b 700 700 665 622 700 657 b 622 778 700 743 665 778 b 544 700 579 778 544 743 z m 233 389 b 311 311 233 346 268 311 l 778 311 b 856 389 821 311 856 346 b 778 467 856 432 821 467 l 311 467 b 233 389 268 467 233 432 z m 467 156 b 389 78 424 156 389 121 b 467 0 389 35 424 0 b 544 78 510 0 544 35 b 467 156 544 121 510 156 z "},"=":{"ha":1089,"x_min":0,"x_max":0,"o":"m 389 544 b 467 467 389 501 424 467 l 778 467 b 856 544 821 467 856 501 b 778 622 856 588 821 622 l 467 622 b 389 544 424 622 389 588 z m 311 311 b 233 233 268 311 233 276 b 311 156 233 190 268 156 l 622 156 b 700 233 665 156 700 190 b 622 311 700 276 665 311 z "},"∞":{"ha":2178,"x_min":0,"x_max":0,"o":"m 700 778 l 1478 778 l 1478 856 b 1400 933 1478 899 1443 933 l 778 933 b 700 856 735 933 700 899 z m 544 622 l 622 622 b 700 700 665 622 700 657 l 700 778 l 622 778 b 544 700 579 778 544 743 z m 1478 700 b 1556 622 1478 657 1513 622 l 1633 622 l 1633 700 b 1556 778 1633 743 1599 778 l 1478 778 z m 233 467 l 467 467 b 544 544 510 467 544 501 l 544 622 l 311 622 b 233 544 268 622 233 588 z m 758 544 b 836 467 758 501 793 467 l 1342 467 b 1419 544 1385 467 1419 501 b 1342 622 1419 588 1385 622 l 836 622 b 758 544 793 622 758 588 z m 1633 544 b 1711 467 1633 501 1668 467 l 1944 467 l 1944 544 b 1867 622 1944 588 1910 622 l 1633 622 z m 78 389 b 156 311 78 346 113 311 l 233 311 l 233 467 l 156 467 b 78 389 113 467 78 432 z m 1944 311 l 2022 311 b 2100 389 2065 311 2100 346 b 2022 467 2100 432 2065 467 l 1944 467 z m 544 156 l 544 233 b 467 311 544 276 510 311 l 233 311 l 233 233 b 311 156 233 190 268 156 z m 1633 156 l 1867 156 b 1944 233 1910 156 1944 190 l 1944 311 l 1711 311 b 1633 233 1668 311 1633 276 z m 544 78 b 622 0 544 35 579 0 l 1556 0 b 1633 78 1599 0 1633 35 l 1633 156 l 544 156 z "},"%":{"ha":1089,"x_min":0,"x_max":0,"o":"m 700 778 l 778 778 b 856 856 821 778 856 813 b 778 933 856 899 821 933 b 700 856 735 933 700 899 z m 233 700 b 311 622 233 657 268 622 b 389 700 354 622 389 657 b 311 778 389 743 354 778 b 233 700 268 778 233 743 z m 544 467 l 622 467 b 700 544 665 467 700 501 l 700 778 l 622 778 b 544 700 579 778 544 743 z m 389 156 l 467 156 b 544 233 510 156 544 190 l 544 467 l 467 467 b 389 389 424 467 389 432 z m 700 233 b 778 156 700 190 735 156 b 856 233 821 156 856 190 b 778 311 856 276 821 311 b 700 233 735 311 700 276 z m 233 78 b 311 0 233 35 268 0 b 389 78 354 0 389 35 l 389 156 l 311 156 b 233 78 268 156 233 121 z "}}}
